<svg xmlns="http://www.w3.org/2000/svg" viewBox="0 0 100 100" preserveAspectRatio="xMidYMid" width="205" height="205" style="shape-rendering: auto; display: block; background: transparent;" xmlns:xlink="http://www.w3.org/1999/xlink"><g><g transform="translate(50 50)">
<g>
<animateTransform repeatCount="indefinite" dur="0.591715976331361s" keyTimes="0;1" values="0;45" type="rotate" attributeName="transform"></animateTransform><path fill="#2a1f7e" d="M25.03996805109783 -7 L33.03996805109783 -7 L33.03996805109783 7 L25.03996805109783 7 A26 26 0 0 1 22.655678677931604 12.75618374131994 L22.655678677931604 12.75618374131994 L28.312532927423984 18.41303799081232 L18.413037990812324 28.312532927423984 L12.756183741319942 22.655678677931604 A26 26 0 0 1 7 25.03996805109783 L7 25.03996805109783 L7.000000000000001 33.03996805109783 L-6.999999999999996 33.03996805109783 L-6.9999999999999964 25.03996805109783 A26 26 0 0 1 -12.756183741319935 22.65567867793161 L-12.756183741319935 22.65567867793161 L-18.413037990812313 28.31253292742399 L-28.312532927423987 18.41303799081232 L-22.655678677931608 12.756183741319939 A26 26 0 0 1 -25.039968051097826 7.000000000000007 L-25.039968051097826 7.000000000000007 L-33.03996805109783 7.000000000000008 L-33.03996805109783 -7 L-25.03996805109783 -7.000000000000001 A26 26 0 0 1 -22.65567867793161 -12.756183741319933 L-22.65567867793161 -12.756183741319933 L-28.312532927423995 -18.413037990812313 L-18.41303799081232 -28.312532927423984 L-12.75618374131994 -22.655678677931604 A26 26 0 0 1 -7.000000000000008 -25.039968051097826 L-7.000000000000008 -25.039968051097826 L-7.000000000000009 -33.03996805109783 L6.999999999999999 -33.03996805109783 L7 -25.03996805109783 A26 26 0 0 1 12.756183741319933 -22.65567867793161 L12.756183741319933 -22.65567867793161 L18.413037990812313 -28.312532927423995 L28.312532927423984 -18.41303799081232 L22.655678677931604 -12.75618374131994 A26 26 0 0 1 25.039968051097826 -7.00000000000001 M0 -19A19 19 0 1 0 0 19 A19 19 0 1 0 0 -19"></path></g></g><g></g></g><!-- [ldio] generated by https://loading.io --></svg>